<svg id="visual" viewBox="0 0 1920 1080" width="1920" height="1080" xmlns="http://www.w3.org/2000/svg" xmlns:xlink="http://www.w3.org/1999/xlink" version="1.1"><rect x="0" y="0" width="1920" height="1080" fill="#1f1e22"></rect><defs><linearGradient id="grad1_0" x1="43.8%" y1="0%" x2="100%" y2="100%"><stop offset="14.444444444444446%" stop-color="#1f1e22" stop-opacity="1"></stop><stop offset="85.55555555555554%" stop-color="#1f1e22" stop-opacity="1"></stop></linearGradient></defs><defs><linearGradient id="grad2_0" x1="0%" y1="0%" x2="56.3%" y2="100%"><stop offset="14.444444444444446%" stop-color="#1f1e22" stop-opacity="1"></stop><stop offset="85.55555555555554%" stop-color="#1f1e22" stop-opacity="1"></stop></linearGradient></defs><g transform="translate(1920, 0)"><path d="M0 918C-61.2 873.9 -122.4 829.9 -184.2 807.2C-246.1 784.6 -308.6 783.3 -367.1 762.2C-425.5 741.1 -480 700.2 -521.9 654.4C-563.7 608.6 -593.1 557.9 -650.5 518.7C-707.9 479.6 -793.4 452.1 -827.1 398.3C-860.8 344.5 -842.6 264.6 -849.2 193.8C-855.7 123.1 -886.8 61.5 -918 0L0 0Z" fill="#5f263c"></path></g><g transform="translate(0, 1080)"><path d="M0 -918C59.6 -873.7 119.2 -829.3 187.1 -819.9C255.1 -810.5 331.5 -836 395.3 -820.8C459.1 -805.5 510.3 -749.5 557.4 -699C604.5 -648.4 647.6 -603.3 697.4 -556.2C747.2 -509 803.8 -459.9 827.1 -398.3C850.4 -336.7 840.5 -262.5 850.1 -194C859.8 -125.6 888.9 -62.8 918 0L0 0Z" fill="#5f263c"></path></g></svg>